<svg xmlns="http://www.w3.org/2000/svg" width="16" height="16" viewBox="0 0 16 16"><g><g><path d="M7.332.002h1.726a6.815 6.815 0 0 1 6.806 6.806v1.727a6.815 6.815 0 0 1-6.806 6.806H7.332A6.814 6.814 0 0 1 .525 8.535V6.808A6.814 6.814 0 0 1 7.332.002zM2.059 8.535a5.279 5.279 0 0 0 5.273 5.273h1.726a5.279 5.279 0 0 0 5.273-5.273V6.808a5.28 5.28 0 0 0-5.273-5.273H7.332a5.28 5.28 0 0 0-5.273 5.273zm6.136-4.699a.767.767 0 1 1 0 1.534.767.767 0 0 1 0-1.534zm0 3.068c.423 0 .767.342.767.768v3.066a.767.767 0 1 1-1.534 0V7.672c0-.426.343-.768.767-.768z"/></g></g></svg>