<svg xmlns="http://www.w3.org/2000/svg" width="21" height="21" viewBox="0 0 21 21"><g><g><path fill="#b3b3b3" d="M.696 5.67H.695a.767.767 0 0 1-.128-.218.81.81 0 0 1-.058-.26c-.002-.025-.006-.048-.005-.073 0-.012-.003-.023-.002-.036a.811.811 0 0 1 .043-.217c.001-.008.007-.014.01-.02a.779.779 0 0 1 .114-.205c.006-.008.009-.02.016-.028L3.947.77a.59.59 0 0 1 .916-.012.83.83 0 0 1 .01 1.056L3.115 3.886c2.57-.342 5.095.199 5.215.226 7.798 1.413 13.317 8.618 12.302 16.058-.05.368-.325.63-.639.63a.588.588 0 0 1-.101-.009c-.353-.063-.594-.444-.54-.852.905-6.628-4.13-13.067-11.244-14.356-.033-.008-2.642-.568-5.1-.183l2.714 1.613c.318.189.443.64.279 1.005-.163.367-.553.51-.872.323L.85 5.799a.706.706 0 0 1-.155-.129z"/></g></g></svg>