<svg xmlns="http://www.w3.org/2000/svg" width="21" height="21" viewBox="0 0 21 21"><g><g><path fill="#b3b3b3" d="M20.054 5.67h.001l.002-.004a.764.764 0 0 0 .126-.215.81.81 0 0 0 .058-.26c.002-.024.005-.047.005-.072 0-.012.003-.023.002-.036a.82.82 0 0 0-.043-.217c-.002-.008-.007-.014-.01-.02a.782.782 0 0 0-.114-.205c-.007-.008-.009-.02-.016-.028L16.803.77a.59.59 0 0 0-.916-.012.83.83 0 0 0-.01 1.056l1.758 2.073c-2.57-.342-5.095.199-5.215.226C4.622 5.525-.897 12.73.118 20.17c.05.368.325.63.639.63a.588.588 0 0 0 .1-.009c.354-.063.595-.444.54-.852C.493 13.31 5.528 6.872 12.642 5.583c.032-.008 2.642-.568 5.1-.183l-2.714 1.613c-.318.189-.443.64-.279 1.005.163.367.553.51.872.323l4.278-2.542a.709.709 0 0 0 .155-.129z"/></g></g></svg>