<?xml version="1.0" encoding="utf-8"?>
<!-- Generator: Adobe Illustrator 23.1.1, SVG Export Plug-In . SVG Version: 6.00 Build 0)  -->
<svg version="1.1" id="Слой_1" xmlns="http://www.w3.org/2000/svg" xmlns:xlink="http://www.w3.org/1999/xlink" x="0px" y="0px"
	 viewBox="0 0 24 24" style="enable-background:new 0 0 24 24;" xml:space="preserve">
<style type="text/css">
	
		.st0{clip-path:url(#SVGID_2_);fill:none;stroke:#e9bd31;stroke-width:1.5;stroke-linecap:round;stroke-linejoin:round;stroke-miterlimit:10;}
</style>
<g>
	<defs>
		<rect id="SVGID_1_" width="24" height="24"/>
	</defs>
	<clipPath id="SVGID_2_">
		<use xlink:href="#SVGID_1_"  style="overflow:visible;"/>
	</clipPath>
	<path class="st0" d="M20,21H4c-1.1,0-2-0.9-2-2V5c0-1.1,0.9-2,2-2h16c1.1,0,2,0.9,2,2v14C22,20.1,21.1,21,20,21z"/>
	<line class="st0" x1="2" y1="8" x2="22" y2="8"/>
	<polyline class="st0" points="4.78,5.49 4.77,5.5 4.78,5.5 4.78,5.5 4.78,5.49 	"/>
	<polyline class="st0" points="7.32,5.49 7.32,5.5 7.32,5.5 7.33,5.5 7.32,5.49 	"/>
	<polyline class="st0" points="9.86,5.49 9.86,5.5 9.86,5.5 9.87,5.5 9.86,5.49 	"/>
	<polyline class="st0" points="16.93,12 14,16 10,13 7.07,17 	"/>
</g>
</svg>
