<?xml version="1.0" encoding="utf-8"?>
<!-- Generator: Adobe Illustrator 23.1.1, SVG Export Plug-In . SVG Version: 6.00 Build 0)  -->
<svg version="1.1" id="Слой_1" xmlns="http://www.w3.org/2000/svg" xmlns:xlink="http://www.w3.org/1999/xlink" x="0px" y="0px"
	 viewBox="0 0 24 24" style="enable-background:new 0 0 24 24;" xml:space="preserve">
<style type="text/css">
	.st0{fill:none;stroke:#e9bd31;stroke-width:1.5;stroke-linecap:round;stroke-linejoin:round;}
	
		.st1{clip-path:url(#SVGID_2_);fill:none;stroke:#e9bd31;stroke-width:1.5;stroke-linecap:round;stroke-linejoin:round;stroke-miterlimit:10;}
</style>
<polyline class="st0" points="15.22,9.86 11.33,13.75 9,11.42 "/>
<g>
	<defs>
		<rect id="SVGID_1_" width="24" height="24"/>
	</defs>
	<clipPath id="SVGID_2_">
		<use xlink:href="#SVGID_1_"  style="overflow:visible;"/>
	</clipPath>
	<polyline class="st1" points="13.09,5.5 14.59,4 13.09,2.5 	"/>
	<polyline class="st1" points="10.91,18.5 9.41,20 10.91,21.5 	"/>
	<path class="st1" d="M17.67,6.37C19.11,7.82,20,9.8,20,12c0,4.42-3.58,8-8,8c-0.79,0-1.54-0.12-2.26-0.33"/>
	<path class="st1" d="M6.25,17.56C4.86,16.12,4,14.16,4,12c0-4.42,3.58-8,8-8c0.79,0,1.54,0.12,2.26,0.33"/>
</g>
</svg>
