<?xml version="1.0" encoding="utf-8"?>
<!-- Generator: Adobe Illustrator 23.1.1, SVG Export Plug-In . SVG Version: 6.00 Build 0)  -->
<svg version="1.1" id="Слой_1" xmlns="http://www.w3.org/2000/svg" xmlns:xlink="http://www.w3.org/1999/xlink" x="0px" y="0px"
	 viewBox="0 0 24 24" style="enable-background:new 0 0 24 24;" xml:space="preserve">
<style type="text/css">
	.st0{clip-path:url(#SVGID_2_);fill:none;stroke:#e9bd31;stroke-width:1.5;stroke-linecap:round;stroke-linejoin:round;}
</style>
<g>
	<defs>
		<rect id="SVGID_1_" width="24" height="24"/>
	</defs>
	<clipPath id="SVGID_2_">
		<use xlink:href="#SVGID_1_"  style="overflow:visible;"/>
	</clipPath>
	<path class="st0" d="M20,21H4c-0.55,0-1-0.45-1-1v-4c0-0.55,0.45-1,1-1h16c0.55,0,1,0.45,1,1v4C21,20.55,20.55,21,20,21z"/>
	<path class="st0" d="M20,11h-6c-0.55,0-1-0.45-1-1V4c0-0.55,0.45-1,1-1h6c0.55,0,1,0.45,1,1v6C21,10.55,20.55,11,20,11z"/>
	<line class="st0" x1="9" y1="3" x2="3" y2="3"/>
	<line class="st0" x1="9" y1="7" x2="3" y2="7"/>
	<line class="st0" x1="9" y1="11" x2="3" y2="11"/>
</g>
</svg>
