<?xml version="1.0" encoding="utf-8"?>
<!-- Generator: Adobe Illustrator 23.1.1, SVG Export Plug-In . SVG Version: 6.00 Build 0)  -->
<svg version="1.1" id="Слой_1" xmlns="http://www.w3.org/2000/svg" xmlns:xlink="http://www.w3.org/1999/xlink" x="0px" y="0px"
	 viewBox="0 0 24 24" style="enable-background:new 0 0 24 24;" xml:space="preserve">
<style type="text/css">
	.st0{fill:none;stroke:#323232;stroke-width:1.5;stroke-linecap:round;stroke-linejoin:round;stroke-miterlimit:10;}
	
		.st1{clip-path:url(#SVGID_2_);fill:none;stroke:#323232;stroke-width:1.5;stroke-linecap:round;stroke-linejoin:round;stroke-miterlimit:10;}
</style>
<line class="st0" x1="12.94" y1="11.06" x2="5.87" y2="18.13"/>
<g>
	<defs>
		<rect id="SVGID_1_" width="24" height="24"/>
	</defs>
	<clipPath id="SVGID_2_">
		<use xlink:href="#SVGID_1_"  style="overflow:visible;"/>
	</clipPath>
	<path class="st1" d="M6.63,13l-3.46-0.82c-0.38-0.09-0.52-0.56-0.24-0.84l2.75-2.75C5.87,8.4,6.12,8.3,6.38,8.29l3.1-0.03"/>
	<path class="st1" d="M19.88,8.98l0.81-3.89c0.22-1.06-0.72-1.99-1.77-1.77l-3.89,0.81C13.88,4.36,12.83,4.93,12,5.75L8.81,8.94
		c-1.22,1.22-2.01,2.8-2.26,4.5l-0.01,0.07c-0.16,1.09,0.2,2.18,0.98,2.96c0.78,0.78,1.88,1.14,2.96,0.98l0.07-0.01
		c1.7-0.25,3.28-1.04,4.5-2.26L18.25,12C19.07,11.17,19.64,10.12,19.88,8.98z"/>
	<path class="st1" d="M13.4,4.71c2.31,1.58,4.31,3.58,5.89,5.89"/>
	<path class="st1" d="M11,17.37l0.82,3.46c0.09,0.38,0.56,0.52,0.84,0.24l2.75-2.75c0.19-0.18,0.29-0.44,0.29-0.7l0.03-3.11"/>
</g>
</svg>
