<?xml version="1.0" encoding="utf-8"?>
<!-- Generator: Adobe Illustrator 23.1.1, SVG Export Plug-In . SVG Version: 6.00 Build 0)  -->
<svg version="1.1" id="Слой_1" xmlns="http://www.w3.org/2000/svg" xmlns:xlink="http://www.w3.org/1999/xlink" x="0px" y="0px"
	 viewBox="0 0 24 24" style="enable-background:new 0 0 24 24;" xml:space="preserve">
<style type="text/css">
	.st0{clip-path:url(#SVGID_2_);fill:none;stroke:#323232;stroke-width:1.5;stroke-linecap:round;stroke-linejoin:round;}
	
		.st1{clip-path:url(#SVGID_2_);fill:none;stroke:#323232;stroke-width:1.5;stroke-linecap:round;stroke-linejoin:round;stroke-miterlimit:10;}
</style>
<g>
	<defs>
		<rect id="SVGID_1_" width="24" height="24"/>
	</defs>
	<clipPath id="SVGID_2_">
		<use xlink:href="#SVGID_1_"  style="overflow:visible;"/>
	</clipPath>
	<circle class="st0" cx="11.5" cy="10.6" r="2.5"/>
	<path class="st1" d="M21,13.98V6.1c0-1.1-0.9-2-2-2H4c-1.1,0-2,0.9-2,2v9c0,1.1,0.9,2,2,2h8.26"/>
	<line class="st1" x1="5" y1="14.1" x2="7" y2="14.1"/>
	<line class="st1" x1="16" y1="7.1" x2="18" y2="7.1"/>
	<path class="st1" d="M15.37,14.96C13.5,15.02,12,16.54,12,18.43c0,1.92,1.56,3.48,3.48,3.48c1.4,0,2.59-0.83,3.15-2.02"/>
	<path class="st1" d="M18.52,19.9c-1.92,0-3.48-1.56-3.48-3.48c0-1.92,1.56-3.48,3.48-3.48c1.92,0,3.48,1.56,3.48,3.48
		C22,18.34,20.44,19.9,18.52,19.9"/>
</g>
</svg>
