<?xml version="1.0" encoding="utf-8"?><svg xmlns="http://www.w3.org/2000/svg" xmlns:xlink="http://www.w3.org/1999/xlink"><symbol viewBox="0 0 19 19" id="W" xmlns="http://www.w3.org/2000/svg"><path d="M9.542 18.528a9.266 9.266 0 01-4.36-1.086L.319 18.988a.267.267 0 01-.074.01.242.242 0 01-.23-.322l1.581-4.665A9.072 9.072 0 01.332 9.389c0-5.04 4.132-9.141 9.21-9.141 5.077 0 9.208 4.1 9.208 9.141 0 5.04-4.131 9.139-9.208 9.139zm0-16.375c-4.023 0-7.295 3.245-7.295 7.236 0 1.534.48 3 1.389 4.242a.24.24 0 01.034.221l-.787 2.322 2.437-.775a.236.236 0 01.208.029 7.292 7.292 0 004.014 1.196c4.021 0 7.293-3.245 7.293-7.235 0-3.991-3.272-7.236-7.293-7.236zm2.936 11.6l-.067.007c-.106.01-.226.022-.375.022-.357 0-.984-.062-2.307-.59-1.375-.549-2.732-1.727-3.82-3.316L5.87 9.82c-.284-.374-.945-1.359-.945-2.402 0-1.159.554-1.819.882-2.025.31-.195 1.008-.287 1.137-.292.105-.005.08-.005.105-.005.271 0 .466.165.614.518.06.147.638 1.54.67 1.605.04.078.162.317.019.6l-.03.061c-.06.12-.11.222-.223.354a6.878 6.878 0 00-.11.13 3.767 3.767 0 01-.233.265c-.026.026-.075.074-.08.093 0 0 0 .018.023.056.152.257 1.265 1.79 2.731 2.427.064.028.276.115.288.115.014 0 .037-.024.053-.043.128-.143.541-.627.678-.83.12-.181.276-.273.46-.273.113 0 .22.035.319.07.243.088 1.61.761 1.646.778.179.086.32.154.403.289.12.2.072.745-.108 1.246-.229.635-1.234 1.156-1.691 1.197z"/></symbol><symbol viewBox="0 0 36 19" id="arrow-foot" xmlns="http://www.w3.org/2000/svg"><path d="M31.998 18.767H32c.001.002.003 0 .005 0 .11.024.227.023.343.007a1.058 1.058 0 00.351-.106c.03-.014.06-.024.09-.043.015-.008.031-.012.045-.022.088-.057.166-.124.232-.199.008-.007.011-.017.018-.024.072-.086.126-.18.168-.278.005-.013.018-.023.023-.038l2.406-6.526c.185-.501-.087-.996-.607-1.109a1.142 1.142 0 00-1.274.704l-1.298 3.518c-1.334-3.318-3.696-5.986-3.81-6.112C21.707.13 9.309-1.619 1.058 4.647c-.409.312-.537.82-.324 1.197.022.04.049.079.079.114.316.383.939.414 1.39.07 7.35-5.58 18.5-3.897 24.874 3.775.031.034 2.474 2.79 3.677 6.005l-3.778-2.168c-.443-.255-1.068-.099-1.397.347-.33.445-.236 1.009.205 1.265l5.954 3.417a.9.9 0 00.262.098z"/></symbol><symbol viewBox="0 0 22 24" id="basket" xmlns="http://www.w3.org/2000/svg"><g clip-path="url(#ca)"><path d="M10.363 18.443a2.046 2.046 0 00-2.045 2.042 2.046 2.046 0 004.09 0 2.046 2.046 0 00-2.045-2.042zm6.134 0a2.046 2.046 0 00-2.045 2.042 2.046 2.046 0 004.089 0 2.046 2.046 0 00-2.044-2.042zm3.978-8.199L7.413 6.891a.614.614 0 00-.75.73L8.67 16.4h-.786L5.482 5.895a.613.613 0 00-.474-.464l-4.27-.882A.614.614 0 00.489 5.75l3.885.802L6.797 17.15a.613.613 0 00.598.477h12.07a.615.615 0 00.607-.53l.858-6.175a.613.613 0 00-.455-.678zm-8.14 3.91a.613.613 0 01-1.227 0v-2.696a.613.613 0 011.227 0v2.696zm2.625 0a.613.613 0 01-1.227 0v-1.88a.613.613 0 011.227 0v1.88zm2.625 0a.613.613 0 01-1.227 0v-1.226a.613.613 0 011.227 0v1.226z"/></g><path fill-rule="evenodd" clip-rule="evenodd" d="M16.268 4.568a2.996 2.996 0 00-1.693-.523c-.627 0-1.21.193-1.693.523-.28-.843-.492-1.752-.492-2.383C12.39.98 13.37 0 14.575 0s2.185.98 2.185 2.185c0 .631-.212 1.54-.492 2.383zm-4.722 2.274l.024.006v-.011l-.024.005zm4.972 1.217c-1.333-.33-2.766-.681-4.129-1.013a2.185 2.185 0 114.129 1.013zm4.436 1.103c-.866-.217-2.155-.538-3.618-.9a2.995 2.995 0 00.243-1.425c.87.18 1.762.45 2.308.765.596.344.969.928 1.067 1.56zM9.869 6.439c-.36-.086-.706-.167-1.03-.243a2.19 2.19 0 01-.376-2.667 2.188 2.188 0 013.147-.7c.098.738.338 1.599.61 2.353a3.01 3.01 0 00-.449.774c-.628.113-1.305.278-1.902.483zm10.124.075a3.43 3.43 0 01-.217.114c-.696-.295-1.587-.526-2.397-.672a3.01 3.01 0 00-.449-.774c.262-.727.494-1.553.599-2.273.095-.067.189-.128.278-.18a2.188 2.188 0 012.986.8 2.188 2.188 0 01-.8 2.985z"/><defs><clipPath id="ca"><path transform="translate(0 3.064)" d="M0 0h20.936v20.936H0z"/></clipPath></defs></symbol><symbol viewBox="0 0 344.96 344.96" id="check" xmlns="http://www.w3.org/2000/svg"><g data-name="Слой 2"><path class="dcls-1" d="M321.85 86.24l-40-23.11-23.1-40H212.5L172.48 0l-40 23.11H86.24l-23.11 40-40 23.1v46.21L0 172.48l23.11 40v46.21l40 23.11 23.11 40h46.21l40 23.1 40-23.11h46.21l23.11-40 40-23.11V212.5l23.11-40-23.11-40V86.24zM156.91 243.07a16.79 16.79 0 01-23.34 0l-50.45-50.44a16.19 16.19 0 010-22.89l13.35-13.35a16.19 16.19 0 0122.89 0l25.87 25.87 80.34-80.35a16.19 16.19 0 0122.89 0l13.35 13.35a16.19 16.19 0 010 22.89z" data-name="Capa 1"/></g></symbol><symbol viewBox="0 0 9 16" id="chevron-left" xmlns="http://www.w3.org/2000/svg"><path d="M7.382 15.948a.988.988 0 01-.75-.344l-5.919-6.9a.986.986 0 010-1.284L6.633.519a.989.989 0 011.39-.106.985.985 0 01.108 1.39l-5.37 6.26 5.37 6.257a.986.986 0 01-.749 1.628z"/></symbol><symbol viewBox="0 0 9 16" id="chevron-right" xmlns="http://www.w3.org/2000/svg"><path d="M1.618 15.948a.988.988 0 00.75-.344l5.918-6.9a.986.986 0 000-1.284L2.367.519A.988.988 0 00.977.413a.985.985 0 00-.108 1.39l5.37 6.26-5.37 6.257a.986.986 0 00.749 1.628z"/></symbol><symbol viewBox="0 0 9 17" id="facebook" xmlns="http://www.w3.org/2000/svg"><path d="M1.936 3.485v2.3H.25V8.6h1.686v8.363h3.463V8.601h2.325s.217-1.35.323-2.825H5.412V3.85c0-.287.378-.675.751-.675H8.05V.246H5.485c-3.635 0-3.549 2.818-3.549 3.239z"/></symbol><symbol viewBox="0 0 24 24" id="fb" xmlns="http://www.w3.org/2000/svg"><path d="M13.397 20.997v-8.196h2.765l.411-3.209h-3.176V7.548c0-.926.258-1.56 1.587-1.56h1.684v-2.86A22.108 22.108 0 0014.201 3c-2.444 0-4.122 1.492-4.122 4.231v2.355H7.332v3.21h2.753v8.201h3.312z"/></symbol><symbol viewBox="0 0 22 19" id="feedback-arrow" xmlns="http://www.w3.org/2000/svg"><path d="M16.814 18.367h.001l.003.002a.718.718 0 00.285.124c.06.014.12.02.184.02h.069c.012-.002.023 0 .035-.001a.778.778 0 00.206-.057c.007-.002.012-.007.019-.01a.75.75 0 00.188-.124c.007-.008.018-.01.026-.018l3.464-3.402a.567.567 0 00-.053-.88.798.798 0 00-1.014.064l-1.868 1.834c.147-2.492-.549-4.88-.582-4.993C15.873 3.534 8.569-1.263 1.493.232 1.143.306.911.59.933.89a.575.575 0 00.015.097c.086.334.47.54.857.458C8.107.113 14.643 4.499 16.379 11.24c.01.031.73 2.498.532 4.886l-1.739-2.494c-.204-.293-.645-.38-.985-.198-.34.183-.45.567-.248.86l2.74 3.932c.037.053.084.1.135.14z"/></symbol><symbol viewBox="0 0 14 14" id="instagram" xmlns="http://www.w3.org/2000/svg"><path d="M13.75 1.346v10.801c0 .743-.608 1.35-1.35 1.35H1.6c-.743 0-1.35-.607-1.35-1.35v-10.8c0-.742.607-1.35 1.35-1.35h10.8c.742 0 1.35.608 1.35 1.35zM4.3 6.747c0 1.485 1.215 2.7 2.7 2.7s2.7-1.215 2.7-2.7a2.709 2.709 0 00-2.7-2.7 2.709 2.709 0 00-2.7 2.7zm7.762 5.4c.203 0 .338-.136.338-.336V6.072h-1.418c.068.203.068.473.068.675A4.061 4.061 0 017 10.797a4.061 4.061 0 01-4.05-4.05c0-.202 0-.472.067-.675H1.6v5.739c0 .2.135.336.337.336zM12.4 1.685c0-.203-.135-.339-.338-.339h-1.35c-.202 0-.337.136-.337.339v1.35c0 .202.135.337.337.337h1.35c.203 0 .338-.135.338-.337z"/></symbol><symbol viewBox="0 0 20 23" id="play" xmlns="http://www.w3.org/2000/svg"><path d="M19.375 11.602L.25 22.642V.564z"/></symbol><symbol viewBox="0 0 16 16" id="telegram" xmlns="http://www.w3.org/2000/svg"><path d="M14.629 3.698l-2.012 9.618c-.152.679-.548.848-1.11.528l-3.066-2.29-1.48 1.442c-.163.166-.3.305-.616.305l.22-3.165 5.683-5.204c.247-.223-.054-.347-.384-.123L4.839 9.29l-3.024-.959c-.658-.208-.67-.667.137-.986L13.78 2.727c.548-.208 1.027.124.849.971z"/></symbol><symbol viewBox="0 0 16 16" id="viber" xmlns="http://www.w3.org/2000/svg"><path d="M8 1.335c-1.071.013-3.374.19-4.662 1.37-.958.948-1.292 2.35-1.331 4.084-.033 1.728-.072 4.973 3.058 5.856v1.346s-.02.538.337.648c.438.14.688-.275 1.105-.72l.778-.879c2.142.178 3.782-.232 3.97-.293.435-.139 2.883-.451 3.283-3.696.41-3.351-.2-5.463-1.301-6.418h-.007c-.332-.306-1.668-1.279-4.652-1.29 0 0-.222-.014-.578-.008zm.037.942a7.02 7.02 0 01.488.011c2.527.007 3.732.767 4.017 1.023.927.794 1.405 2.697 1.055 5.495-.332 2.713-2.317 2.885-2.685 3.002-.156.05-1.6.406-3.42.289 0 0-1.356 1.634-1.78 2.055-.067.074-.146.095-.196.085-.071-.018-.093-.107-.089-.229l.013-2.233c-2.655-.733-2.498-3.5-2.47-4.946.033-1.446.304-2.628 1.113-3.43 1.088-.982 3.043-1.115 3.953-1.122zm.2 1.446a.166.166 0 100 .332 3.136 3.136 0 012.242.883c.606.588.9 1.378.912 2.411 0 .092.074.167.167.167V7.51a.167.167 0 00.168-.165 3.588 3.588 0 00-1.009-2.646c-.66-.645-1.496-.977-2.48-.977zm-2.198.382a.523.523 0 00-.342.067H5.69a2.61 2.61 0 00-.637.523 1.003 1.003 0 00-.256.525.71.71 0 00.026.302l.01.006c.172.504.396.988.67 1.444a8.48 8.48 0 001.29 1.762l.015.022.024.017.015.018.017.015c.532.505 1.127.94 1.769 1.295.734.4 1.18.588 1.447.667v.004c.078.024.15.034.221.034.228-.016.444-.109.613-.262a2.53 2.53 0 00.517-.638v-.004c.128-.241.085-.469-.1-.623-.37-.323-.77-.61-1.195-.857-.285-.155-.574-.061-.69.095l-.25.315c-.129.156-.361.134-.361.134l-.007.004C7.093 8.527 6.63 6.772 6.63 6.772s-.022-.239.139-.36l.312-.252c.15-.122.254-.41.094-.695a7.498 7.498 0 00-.856-1.194.475.475 0 00-.28-.167zm2.486.495c-.221 0-.221.334.003.334A2.098 2.098 0 0110 5.572 1.94 1.94 0 0110.5 7a.168.168 0 00.167.165l.007.009a.169.169 0 00.167-.167c.015-.662-.191-1.218-.595-1.663C9.84 4.9 9.273 4.65 8.549 4.6h-.024zm.274.898c-.228-.006-.236.335-.01.341.55.029.816.306.851.877a.166.166 0 00.165.163h.007a.168.168 0 00.16-.178c-.039-.744-.445-1.164-1.166-1.202H8.8z"/></symbol><symbol viewBox="0 0 24 24" id="vk" xmlns="http://www.w3.org/2000/svg"><path d="M21.579 6.855c.14-.465 0-.806-.662-.806h-2.193c-.558 0-.813.295-.953.619 0 0-1.115 2.719-2.695 4.482-.51.513-.743.675-1.021.675-.139 0-.341-.162-.341-.627V6.855c0-.558-.161-.806-.626-.806H9.642c-.348 0-.558.258-.558.504 0 .528.79.65.871 2.138v3.228c0 .707-.127.836-.407.836-.743 0-2.551-2.73-3.624-5.853-.209-.607-.42-.852-.98-.852H2.752c-.627 0-.752.295-.752.619 0 .582.743 3.462 3.461 7.27 1.812 2.602 4.363 4.012 6.687 4.012 1.393 0 1.565-.313 1.565-.853v-1.966c0-.626.133-.752.574-.752.324 0 .882.164 2.183 1.417 1.486 1.486 1.732 2.153 2.567 2.153h2.192c.626 0 .939-.313.759-.931-.197-.615-.907-1.51-1.849-2.57-.512-.603-1.277-1.253-1.51-1.578-.325-.42-.231-.604 0-.976.001 0 2.672-3.761 2.95-5.04z"/></symbol><symbol viewBox="0 0 17 10" id="vkontakte" xmlns="http://www.w3.org/2000/svg"><path d="M14.055 6.47c.523.515 1.074.999 1.543 1.567.207.252.403.51.553.805.212.415.02.872-.35.897l-2.294-.001c-.592.05-1.064-.192-1.46-.6-.318-.325-.613-.675-.918-1.011a2.138 2.138 0 00-.413-.371c-.313-.207-.585-.142-.764.186-.182.337-.224.71-.242 1.081-.024.546-.188.69-.73.715-1.16.056-2.261-.122-3.284-.714-.901-.52-1.6-1.255-2.209-2.087C2.302 5.316 1.395 3.535.58 1.703c-.183-.412-.049-.633.402-.64a58.449 58.449 0 012.246-.003c.305.005.506.18.624.472.405 1.005.9 1.961 1.522 2.848.166.236.335.472.575.638.266.185.469.124.594-.176.08-.19.114-.393.132-.597.06-.7.067-1.398-.037-2.095-.064-.435-.306-.717-.736-.798-.22-.042-.187-.124-.08-.251.184-.218.357-.353.703-.353h2.593c.409.08.5.266.555.68l.002 2.909c-.004.16.08.637.366.743.23.077.38-.109.518-.256.621-.665 1.064-1.45 1.46-2.266.176-.357.327-.73.473-1.1.109-.277.279-.414.586-.407l2.496.003c.074 0 .15.001.22.013.421.073.537.254.407.67-.205.65-.603 1.192-.992 1.737-.417.582-.862 1.143-1.275 1.729-.379.535-.349.803.122 1.267z"/></symbol><symbol viewBox="0 0 19 19" id="watsapp" xmlns="http://www.w3.org/2000/svg"><path d="M9.542 18.528a9.266 9.266 0 01-4.36-1.086L.319 18.988a.267.267 0 01-.074.01.242.242 0 01-.23-.322l1.581-4.665A9.072 9.072 0 01.332 9.389c0-5.04 4.132-9.141 9.21-9.141 5.077 0 9.208 4.1 9.208 9.141 0 5.04-4.131 9.139-9.208 9.139zm0-16.375c-4.023 0-7.295 3.245-7.295 7.236 0 1.534.48 3 1.389 4.242a.24.24 0 01.034.221l-.787 2.322 2.437-.775a.236.236 0 01.208.029 7.292 7.292 0 004.014 1.196c4.021 0 7.293-3.245 7.293-7.235 0-3.991-3.272-7.236-7.293-7.236zm2.936 11.6l-.067.007c-.106.01-.226.022-.375.022-.357 0-.984-.062-2.307-.59-1.375-.549-2.732-1.727-3.82-3.316L5.87 9.82c-.284-.374-.945-1.359-.945-2.402 0-1.159.554-1.819.882-2.025.31-.195 1.008-.287 1.137-.292.105-.005.08-.005.105-.005.271 0 .466.165.614.518.06.147.638 1.54.67 1.605.04.078.162.317.019.6l-.03.061c-.06.12-.11.222-.223.354a6.878 6.878 0 00-.11.13 3.767 3.767 0 01-.233.265c-.026.026-.075.074-.08.093 0 0 0 .018.023.056.152.257 1.265 1.79 2.731 2.427.064.028.276.115.288.115.014 0 .037-.024.053-.043.128-.143.541-.627.678-.83.12-.181.276-.273.46-.273.113 0 .22.035.319.07.243.088 1.61.761 1.646.778.179.086.32.154.403.289.12.2.072.745-.108 1.246-.229.635-1.234 1.156-1.691 1.197z"/></symbol><symbol viewBox="0 0 16 16" id="whatsapp" xmlns="http://www.w3.org/2000/svg"><path fill-rule="evenodd" clip-rule="evenodd" d="M12.269 3.755A5.947 5.947 0 008.035 2 5.994 5.994 0 002.05 7.985a5.98 5.98 0 00.799 2.992L2 14.077l3.173-.832c.877.477 1.86.728 2.86.728h.002a5.993 5.993 0 005.533-8.276 5.953 5.953 0 00-1.3-1.942zm-4.234 9.208h-.002c-.89 0-1.765-.24-2.532-.694l-.181-.108-1.883.494.502-1.835-.118-.188a4.965 4.965 0 01-.76-2.647 4.982 4.982 0 016.88-4.597c.604.25 1.152.618 1.613 1.081a4.946 4.946 0 011.455 3.52 4.982 4.982 0 01-4.974 4.974zm2.729-3.726c-.15-.075-.885-.436-1.022-.486-.137-.05-.236-.075-.336.074-.1.15-.387.486-.474.586-.087.1-.175.112-.324.038-.15-.075-.631-.233-1.203-.742a4.505 4.505 0 01-.832-1.036c-.087-.15-.009-.231.066-.306.068-.066.15-.174.224-.262.075-.087.1-.149.15-.249.05-.1.025-.187-.013-.262-.037-.075-.337-.811-.461-1.11-.121-.29-.244-.252-.336-.256a6.418 6.418 0 00-.286-.005.55.55 0 00-.4.186c-.137.15-.523.512-.523 1.248s.536 1.447.61 1.547c.075.1 1.055 1.61 2.555 2.258.358.154.636.246.853.315.358.114.684.098.942.06.287-.043.885-.362 1.01-.711.124-.35.124-.649.087-.711-.038-.063-.138-.101-.287-.176z"/></symbol><symbol viewBox="0 0 15 19" id="youtube" xmlns="http://www.w3.org/2000/svg"><path d="M14.737 17.08a1.9 1.9 0 01-.588.994 1.76 1.76 0 01-1.032.462c-1.241.141-3.114.21-5.617.21s-4.376-.069-5.617-.21a1.79 1.79 0 01-1.038-.462c-.3-.267-.494-.6-.582-.995C.088 16.331 0 15.16 0 13.564c0-1.567.088-2.739.263-3.515.095-.396.29-.728.587-.995a1.834 1.834 0 011.043-.472c1.235-.134 3.104-.2 5.607-.2s4.376.066 5.617.2a1.85 1.85 0 011.038.472c.3.267.494.599.582.995.175.75.263 1.922.263 3.515 0 1.567-.088 2.739-.263 3.515zM4.282 10.12H1.124v.944h1.063v5.714h1.012v-5.714h1.083zm2.732 1.697h-.9v3.796c-.203.282-.395.423-.577.423-.122 0-.193-.072-.213-.212a2.743 2.743 0 01-.01-.351v-3.656h-.9v3.927c0 .328.026.573.08.734.08.247.277.37.587.37.324 0 .668-.204 1.032-.612v.542h.901zm3.441 1.496c0-.488-.03-.82-.09-.995-.115-.374-.355-.56-.72-.56-.337 0-.65.18-.94.54V10.12h-.901v6.658h.9v-.481c.304.368.618.552.942.552.364 0 .604-.184.718-.552.061-.18.091-.516.091-1.006zm3.421 1.748h-.92c0 .342-.008.546-.021.613-.047.24-.182.362-.405.362-.31 0-.465-.231-.465-.694v-.875h1.811v-1.033c0-.529-.09-.918-.273-1.165-.263-.343-.62-.513-1.073-.513-.459 0-.82.17-1.083.513-.189.247-.283.636-.283 1.165v1.736c0 .53.098.918.293 1.167.263.341.628.512 1.093.512.486 0 .85-.177 1.093-.532.122-.182.193-.362.213-.543.013-.06.02-.254.02-.582zm-1.811-1.809c0-.455.151-.683.455-.683.303 0 .455.228.455.683v.462h-.91zM9.16 16.036c-.155 0-.307-.074-.456-.222V12.79c.149-.147.3-.22.456-.22.263 0 .395.224.395.672v2.12c0 .448-.132.674-.395.674zm1.953-9.112c-.357.416-.705.624-1.042.624-.31 0-.51-.124-.597-.373-.054-.16-.081-.412-.081-.753V2.465h.92v3.687c0 .22.004.336.01.35.02.147.092.22.213.22.183 0 .375-.142.577-.43V2.465h.921v5.011h-.92zm-3.826.624c-.452 0-.806-.171-1.062-.513-.19-.255-.284-.649-.284-1.186V4.092c0-.536.095-.928.284-1.175.256-.342.61-.512 1.062-.512.466 0 .824.17 1.073.512.19.247.284.64.284 1.175V5.85c0 .543-.095.938-.284 1.186-.25.342-.607.513-1.073.513zm.436-3.636c0-.462-.145-.693-.436-.693-.29 0-.435.23-.435.693V6.02c0 .468.145.703.435.703.29 0 .436-.235.436-.703zM4.707 7.477H3.695V4.755c-.095-.495-.3-1.206-.618-2.129-.25-.69-.469-1.316-.657-1.88h1.072l.719 2.642.688-2.641h1.032L4.707 4.755z"/></symbol></svg>