<svg xmlns="http://www.w3.org/2000/svg" width="36" height="19" viewBox="0 0 36 19"><g><g><path fill="#dad5c9" d="M31.998 18.767H32c.001.002.003 0 .005 0 .11.024.227.023.343.007a1.058 1.058 0 0 0 .351-.106c.03-.014.06-.024.09-.043.015-.008.031-.012.045-.022.088-.057.166-.124.232-.199.008-.007.011-.017.018-.024.072-.086.126-.18.168-.278.005-.013.018-.023.023-.038l2.406-6.526c.185-.501-.087-.996-.607-1.109a1.142 1.142 0 0 0-1.274.704l-1.298 3.518c-1.334-3.318-3.696-5.986-3.81-6.112C21.707.13 9.309-1.619 1.058 4.647c-.409.312-.537.82-.324 1.197.022.04.049.079.079.114.316.383.939.414 1.39.07 7.35-5.58 18.5-3.897 24.874 3.775.031.034 2.474 2.79 3.677 6.005l-3.778-2.168c-.443-.255-1.068-.099-1.397.347-.33.445-.236 1.009.205 1.265l5.954 3.417c.081.046.17.079.262.098z"/></g></g></svg>