<svg xmlns="http://www.w3.org/2000/svg" width="22" height="19" viewBox="0 0 22 19"><g><g><path fill="#bebebe" d="M16.814 18.367h.001l.003.002a.718.718 0 0 0 .285.124c.06.014.12.02.184.02h.069c.012-.002.023 0 .035-.001a.778.778 0 0 0 .206-.057c.007-.002.012-.007.019-.01a.75.75 0 0 0 .188-.124c.007-.008.018-.01.026-.018l3.464-3.402a.567.567 0 0 0-.053-.88.798.798 0 0 0-1.014.064l-1.868 1.834c.147-2.492-.549-4.88-.582-4.993C15.873 3.534 8.569-1.263 1.493.232 1.143.306.911.59.933.89a.575.575 0 0 0 .015.097c.086.334.47.54.857.458C8.107.113 14.643 4.499 16.379 11.24c.01.031.73 2.498.532 4.886l-1.739-2.494c-.204-.293-.645-.38-.985-.198-.34.183-.45.567-.248.86l2.74 3.932c.037.053.084.1.135.14z"/></g></g></svg>