<svg xmlns="http://www.w3.org/2000/svg" width="15" height="15" viewBox="0 0 15 15"><g><g><path fill="#7e499f" d="M14.995 6.724c-.003-.055-.005-.107-.004-.153.043-3.404-2.983-6.491-6.476-6.606a.25.25 0 0 0-.043.002.292.292 0 0 1-.04.002c-.036 0-.079-.003-.124-.006-.055-.003-.117-.008-.18-.008-.557 0-.662.386-.676.615-.031.53.496.568.749.586.061.004.12.008.167.015 3.392.508 4.952 2.073 5.384 5.402.008.056.009.125.01.198.004.26.013.801.61.812h.018c.187 0 .336-.054.443-.163.185-.189.172-.47.162-.696zM7.959 4.281c-.067.19-.06.355.024.49.122.2.356.26.57.294.771.12 1.168.536 1.247 1.308.037.36.286.611.605.611a.6.6 0 0 0 .072-.004c.385-.045.57-.32.554-.817.006-.52-.273-1.11-.748-1.58-.476-.47-1.05-.736-1.573-.723-.197.005-.607.015-.75.421zm.488-1.152c.064.009.125.017.176.028 2.066.45 2.761 1.156 3.101 3.15.009.049.012.109.016.173.015.238.046.734.594.734a.996.996 0 0 0 .145-.012c.51-.075.494-.528.487-.746-.003-.061-.005-.12 0-.158a.196.196 0 0 0 .003-.03c.018-2.12-1.837-4.065-4.136-4.334-.045-.005-.095-.013-.148-.022a2.208 2.208 0 0 0-.35-.037c-.471 0-.597.322-.63.515-.033.187-.002.343.09.466.157.207.431.244.652.273zM4.667 7.22c-.312-.68-.21-1.125.336-1.487.311-.206.89-.588.849-1.32-.047-.832-1.93-3.334-2.725-3.618A1.586 1.586 0 0 0 2.076.792c-.913.3-1.568.824-1.894 1.518-.316.67-.302 1.457.04 2.276.991 2.367 2.383 4.43 4.139 6.134 1.719 1.667 3.83 3.033 6.278 4.059.22.092.452.143.62.18.058.012.108.023.144.033a.25.25 0 0 0 .061.008h.02c1.15 0 2.533-1.024 2.957-2.192.372-1.022-.307-1.527-.852-1.933l-.217-.164c-.37-.29-.764-.558-1.145-.817a93.6 93.6 0 0 1-.237-.16c-.488-.335-.927-.497-1.342-.497-.558 0-1.045.3-1.447.893-.178.263-.394.39-.66.39-.157 0-.336-.044-.531-.13-1.576-.695-2.7-1.762-3.344-3.17z"/></g></g></svg>