<svg xmlns="http://www.w3.org/2000/svg" width="17" height="10" viewBox="0 0 17 10"><g><g><path fill="#f8f9f9" d="M14.055 6.47c.523.515 1.074.999 1.543 1.567.207.252.403.51.553.805.212.415.02.872-.35.897l-2.294-.001c-.592.05-1.064-.192-1.46-.6-.318-.325-.613-.675-.918-1.011a2.138 2.138 0 0 0-.413-.371c-.313-.207-.585-.142-.764.186-.182.337-.224.71-.242 1.081-.024.546-.188.69-.73.715-1.16.056-2.261-.122-3.284-.714-.901-.52-1.6-1.255-2.209-2.087C2.302 5.316 1.395 3.535.58 1.703c-.183-.412-.049-.633.402-.64a58.449 58.449 0 0 1 2.246-.003c.305.005.506.18.624.472.405 1.005.9 1.961 1.522 2.848.166.236.335.472.575.638.266.185.469.124.594-.176.08-.19.114-.393.132-.597.06-.7.067-1.398-.037-2.095-.064-.435-.306-.717-.736-.798-.22-.042-.187-.124-.08-.251.184-.218.357-.353.703-.353h2.593c.409.08.5.266.555.68l.002 2.909c-.004.16.08.637.366.743.23.077.38-.109.518-.256.621-.665 1.064-1.45 1.46-2.266.176-.357.327-.73.473-1.1.109-.277.279-.414.586-.407l2.496.003c.074 0 .15.001.22.013.421.073.537.254.407.67-.205.65-.603 1.192-.992 1.737-.417.582-.862 1.143-1.275 1.729-.379.535-.349.803.122 1.267z"/></g></g></svg>