<svg xmlns="http://www.w3.org/2000/svg" width="19" height="19" viewBox="0 0 19 19"><g><g><path fill="#282828" d="M9.542 18.528a9.266 9.266 0 0 1-4.36-1.086L.319 18.988a.267.267 0 0 1-.074.01.242.242 0 0 1-.23-.322l1.581-4.665A9.072 9.072 0 0 1 .332 9.389c0-5.04 4.132-9.141 9.21-9.141 5.077 0 9.208 4.1 9.208 9.141 0 5.04-4.131 9.139-9.208 9.139zm0-16.375c-4.023 0-7.295 3.245-7.295 7.236 0 1.534.48 3 1.389 4.242.047.064.06.147.034.221l-.787 2.322 2.437-.775a.236.236 0 0 1 .208.029 7.292 7.292 0 0 0 4.014 1.196c4.021 0 7.293-3.245 7.293-7.235 0-3.991-3.272-7.236-7.293-7.236zm2.936 11.6l-.067.007c-.106.01-.226.022-.375.022-.357 0-.984-.062-2.307-.59-1.375-.549-2.732-1.727-3.82-3.316L5.87 9.82c-.284-.374-.945-1.359-.945-2.402 0-1.159.554-1.819.882-2.025.31-.195 1.008-.287 1.137-.292.105-.005.08-.005.105-.005.271 0 .466.165.614.518.06.147.638 1.54.67 1.605.04.078.162.317.019.6l-.03.061c-.06.12-.11.222-.223.354a6.878 6.878 0 0 0-.11.13 3.767 3.767 0 0 1-.233.265c-.026.026-.075.074-.08.093 0 0 0 .018.023.056.152.257 1.265 1.79 2.731 2.427.064.028.276.115.288.115.014 0 .037-.024.053-.043.128-.143.541-.627.678-.83.12-.181.276-.273.46-.273.113 0 .22.035.319.07.243.088 1.61.761 1.646.778.179.086.32.154.403.289.12.2.072.745-.108 1.246-.229.635-1.234 1.156-1.691 1.197z"/></g></g></svg>