<svg xmlns="http://www.w3.org/2000/svg" width="15" height="19" viewBox="0 0 15 19"><g><g><path fill="#888" d="M14.737 17.08a1.9 1.9 0 0 1-.588.994c-.297.269-.64.423-1.032.462-1.241.141-3.114.21-5.617.21s-4.376-.069-5.617-.21a1.79 1.79 0 0 1-1.038-.462c-.3-.267-.494-.6-.582-.995C.088 16.331 0 15.16 0 13.564c0-1.567.088-2.739.263-3.515.095-.396.29-.728.587-.995a1.834 1.834 0 0 1 1.043-.472c1.235-.134 3.104-.2 5.607-.2s4.376.066 5.617.2a1.85 1.85 0 0 1 1.038.472c.3.267.494.599.582.995.175.75.263 1.922.263 3.515 0 1.567-.088 2.739-.263 3.515zM4.282 10.12H1.124v.944h1.063v5.714h1.012v-5.714h1.083zm2.732 1.697h-.9v3.796c-.203.282-.395.423-.577.423-.122 0-.193-.072-.213-.212a2.743 2.743 0 0 1-.01-.351v-3.656h-.9v3.927c0 .328.026.573.08.734.08.247.277.37.587.37.324 0 .668-.204 1.032-.612v.542h.901zm3.441 1.496c0-.488-.03-.82-.09-.995-.115-.374-.355-.56-.72-.56-.337 0-.65.18-.94.54V10.12h-.901v6.658h.9v-.481c.304.368.618.552.942.552.364 0 .604-.184.718-.552.061-.18.091-.516.091-1.006zm3.421 1.748h-.92c0 .342-.008.546-.021.613-.047.24-.182.362-.405.362-.31 0-.465-.231-.465-.694v-.875h1.811v-1.033c0-.529-.09-.918-.273-1.165-.263-.343-.62-.513-1.073-.513-.459 0-.82.17-1.083.513-.189.247-.283.636-.283 1.165v1.736c0 .53.098.918.293 1.167.263.341.628.512 1.093.512.486 0 .85-.177 1.093-.532.122-.182.193-.362.213-.543.013-.06.02-.254.02-.582zm-1.811-1.809c0-.455.151-.683.455-.683.303 0 .455.228.455.683v.462h-.91zM9.16 16.036c-.155 0-.307-.074-.456-.222V12.79c.149-.147.3-.22.456-.22.263 0 .395.224.395.672v2.12c0 .448-.132.674-.395.674zm1.953-9.112c-.357.416-.705.624-1.042.624-.31 0-.51-.124-.597-.373-.054-.16-.081-.412-.081-.753V2.465h.92v3.687c0 .22.004.336.01.35.02.147.092.22.213.22.183 0 .375-.142.577-.43V2.465h.921v5.011h-.92zm-3.826.624c-.452 0-.806-.171-1.062-.513-.19-.255-.284-.649-.284-1.186V4.092c0-.536.095-.928.284-1.175.256-.342.61-.512 1.062-.512.466 0 .824.17 1.073.512.19.247.284.64.284 1.175V5.85c0 .543-.095.938-.284 1.186-.25.342-.607.513-1.073.513zm.436-3.636c0-.462-.145-.693-.436-.693-.29 0-.435.23-.435.693V6.02c0 .468.145.703.435.703.29 0 .436-.235.436-.703zM4.707 7.477H3.695V4.755c-.095-.495-.3-1.206-.618-2.129-.25-.69-.469-1.316-.657-1.88h1.072l.719 2.642.688-2.641h1.032L4.707 4.755z"/></g></g></svg>